<svg width="516" height="611" viewBox="0 0 516 611" fill="none" xmlns="http://www.w3.org/2000/svg"><path d="M363.1 594.41C327.15 603.76 304.54 608.36 257.3 610.31C241.28 610.97 223.97 609.81 208 608.44C177.28 605.79 159.64 601.98 130.97 591.61C96.1 578.99 74.31 573.63 48.8 548.59C39.03 539.01 22.98 524.41 25.17 522.41C27.23 520.54 61.12 528.95 63.18 528.95C67.44 528.95 73.76 525.64 71.39 522.41C69.34 519.6 37.5 484.07 37.5 484.07C37.5 484.07 13.97 451.98 6.69 428.9C-0.21 407.07 0.52 396.17 0.52 372.79C0.52 352.23 6.31 340.37 14.9 321.36C26.17 296.43 50.85 263.56 54.96 265.25C57.23 266.19 50.54 305.02 67.29 321.36C78.06 331.87 87.65 340.47 103.24 338.19C117.81 336.06 126.91 327.73 130.97 314.81C133.02 308.27 130.82 279.31 134.05 256.84C137.79 230.84 140.42 215.95 150.48 191.38C158.63 171.49 173.08 143.69 177.19 142.75C181.3 141.82 204.76 147.02 218.27 139.01C229.65 132.27 234.5 124.82 237.79 112.83C240.87 101.61 238.82 1.55 241.9 0.62C250.72 -2.06 307.63 42.7 307.63 42.7C307.63 42.7 356.89 81.88 380.56 112.83C399.01 136.97 411.25 157.71 416.51 179.22C417.65 183.9 417.53 220.37 417.53 240C417.53 259.64 422.67 290.5 432.94 296.11C439.62 299.76 444.73 300.74 452.46 299.85C470.23 297.81 473 264.32 477.11 263.38C481.22 262.45 502.87 307.95 509.98 338.19C517.86 371.76 516.14 405.52 512.03 426.09C510.04 436.06 499.34 458.01 485.32 475.65C472.36 491.98 450.4 507.45 444.24 513.06C438.08 518.67 430.89 528.02 432.94 531.76C435 535.5 454.51 532.69 459.65 535.5C462.64 537.14 443.84 554.69 418.56 570.1C400.54 581.08 378.06 590.52 363.1 594.41Z" fill="#FF2408" stroke="#FF2408"/><path d="M74.48 202.6C64.92 221.62 33.79 242.6 32.36 240C31.34 238.13 28.07 216.38 31.34 201.66C34.04 189.49 36.37 183.46 44.69 173.61C49.82 167.53 59.06 164.84 65.23 156.78C70.26 150.21 71.39 139.48 74.48 138.07C76.53 137.14 80.28 150.9 81.67 159.58C84.35 176.4 82.23 187.14 74.48 202.6Z" fill="#FF2408" stroke="#FF2408"/><path d="M166.92 586.93C183.1 596.62 200.81 605.63 211.08 607.5C221.35 609.37 288.12 609.37 291.2 607.5C294.28 605.63 331.13 587.52 351.8 571.97C381.54 549.58 398.01 535.63 419.59 506.51C432.84 488.63 451.43 459.75 448.35 457.88C442.19 454.14 416.51 468.17 408.29 463.49C404.08 461.1 411.03 452.13 416.51 441.99C421.73 432.33 425.37 421.51 426.78 417.67C429.67 409.81 429.86 388.68 429.86 383.07C429.86 374.09 424.72 364.37 421.64 363.44C416.77 361.96 406.15 372.29 394.94 373.72C384.15 375.1 376.26 376.44 367.21 370.92C358.4 365.54 352.93 359.02 353.85 349.41C355.91 327.9 357.02 316.99 357.96 296.11C358.78 277.86 359.27 266.55 356.93 248.42C355.12 234.33 353.98 228.4 349.74 214.75C343.03 193.15 336.98 181.12 325.09 161.45C315.5 145.57 310.04 135.33 296.33 122.18C286.93 113.15 274.76 98.8 271.68 101.6C270.65 102.54 270.39 127.15 265.52 142.75C262.71 151.75 260.22 156.55 256.28 165.19C241.3 197.98 222.49 211.58 205.95 243.74C191.41 272 185.46 288.8 175.13 318.55C165.64 345.92 159.73 383.08 154.59 389.62C146.32 400.16 140.6 407.79 126.86 411.13C114.74 414.07 106.75 411.4 95.02 407.39C78.48 401.72 70.37 384.01 62.15 384.95C59.09 385.3 57.44 417.92 61.12 441.05C63.31 454.82 65.31 461.6 70.37 474.72C75.66 488.44 78.82 493.92 86.8 506.51C96.43 521.7 102.73 529.91 115.56 542.98C124.82 552.42 130.69 559.05 141.24 567.29C151.23 575.09 155.92 580.34 166.92 586.93Z" fill="#FF8434" stroke="#FF8434"/><path d="M191.57 575.71C202.2 588.81 215.62 605.34 222.38 606.57C227.52 607.5 287.49 608.05 291.2 605.63C298.39 600.96 305.9 591.09 314.82 580.39C324.72 568.51 328.91 560.92 336.39 547.66C347.99 527.08 354.69 516.03 360.02 493.42C362.48 482.97 368.23 470.04 367.21 469.11C365.15 467.24 354.85 478.98 348.72 474.72C347.82 474.09 346.89 473.86 346.66 472.85C345.64 468.17 355.91 452.28 362.07 440.12C366.16 432.05 370.85 421 368.23 418.61C366.18 416.74 353.52 426.39 345.64 433.57C340.5 438.25 328.05 447.69 314.82 446.66C304.99 445.9 299.09 442.83 292.23 436.38C281.87 426.64 283.6 407.39 282.98 402.71C282.56 399.48 283.76 378.78 284.01 363.44C284.43 337.51 287.09 299.85 284.01 297.05C280.38 293.74 242.27 320.74 223.41 342.87C206.36 362.86 199.17 376.49 191.57 400.84C183.97 425.19 187.46 465.37 186.43 474.72C185.4 484.07 145.35 473.78 142.26 474.72C139.18 475.65 147.34 500.94 153.56 516.79C163.49 542.1 174.11 554.2 191.57 575.71Z" fill="#FBE13C" stroke="#FBE13C"/><path d="M208 566.36C218.64 583.29 240.87 604.7 241.9 605.63C242.92 606.57 286.06 606.57 288.12 605.63C290.17 604.7 301.4 584.9 308.66 571.03C317.96 553.28 322.38 542.94 329.2 524.28C331.33 518.47 335.64 509.91 334.34 509.32C332.28 508.38 326.89 515.63 320.99 517.73C312.8 520.65 308.84 519.41 300.57 516.84L300.44 516.8C288.58 513.1 285.87 505.32 279.9 495.29L279.79 495.11C275.39 487.71 272.93 483.58 269.63 475.65C263.95 462.02 257.3 441.99 254.22 441.05C251.14 440.12 242.52 470.28 237.79 489.68C235.73 498.1 231.87 516.13 217.25 522.41C213.46 524.03 211.15 524.97 206.97 525.21C198.72 525.69 195.73 517.73 187.46 517.73C184.38 517.73 196.9 548.7 208 566.36Z" fill="#FFFFC0" stroke="#FFFFC0"/></svg>