<svg width="757" height="638" viewBox="0 0 757 638" fill="none" xmlns="http://www.w3.org/2000/svg"><path d="M132.85 226L251.85 320.5L571.85 280L502.85 71.5L264.35 56L132.85 226Z" fill="#00D3F9" stroke="#00D3F9"/><path d="M208.35 264.5L370.35 596.5L102.85 315L30.85 220.5L208.35 264.5Z" fill="#0469C3" stroke="#0469C3"/><path d="M542.85 263.5L208.35 264.5L370.35 596.5L542.85 263.5Z" fill="#0586E4" stroke="#0586E4"/><path d="M543.35 263L370.35 596L497.35 487.5L720.85 225.5L543.35 263Z" fill="#00B0FB" stroke="#00B0FB"/><path d="M208.35 264L37.85 221.5L209.85 19L270.35 93L208.35 264Z" fill="#03B0FC" stroke="#03B0FC"/><path d="M270.85 93.5L217.35 27.5L550.35 26.5L469.85 98L270.85 93.5Z" fill="#BAF4F6" stroke="#BAF4F6"/><path d="M470.35 98.5L549.35 28L721.85 224.5L542.85 263L470.35 98.5Z" fill="#C6FAF8" stroke="#C6FAF8"/><path d="M18.85 222L369.85 617L737.85 226.5L554.85 14H209.35L18.85 222Z" stroke="black" stroke-width="28"/></svg>