<svg width="669" height="641" viewBox="0 0 669 641" fill="none" xmlns="http://www.w3.org/2000/svg"><path d="M87.53 199.69L201.03 417.19L353.53 519.19L496.53 366.19L566.03 222.19C565.2 178.69 562.13 89.69 556.53 81.69C550.93 73.69 454.53 99.03 407.03 112.69L312.53 147.69L222.03 81.69L161.03 126.19L87.53 199.69Z" fill="#F46C6E" stroke="#F46C6E"/><path d="M214.53 122.19L126.03 35.19L108.03 38.19L46.53 84.69L21.53 161.19L126.03 208.69L214.53 122.19Z" fill="#F7A6A3" stroke="#F7A6A3"/><path d="M95.53 393.69L126.03 209.19L27.53 164.69L20.53 165.69V212.19L23.53 262.19L38.53 312.69L73.03 366.19L95.53 393.69Z" fill="#F04848" stroke="#F04848"/><path d="M126.53 208.69L96.53 392.19L203.03 364.69L126.53 208.69Z" fill="#E41F29" stroke="#E41F29"/><path d="M203.53 365.19L96.53 393.19L101.53 409.19L137.53 454.69L184.53 503.19L263.53 577.19L335.03 612.19L334.53 485.69L203.53 365.19Z" fill="#CB1023" stroke="#CB1023"/><path d="M335.53 485.19V610.69L378.03 596.19L496.03 486.69L575.53 393.19L467.03 364.69L335.53 485.19Z" fill="#8D0223" stroke="#8D0223"/><path d="M456.03 121.19L544.03 207.69L644.03 164.19L651.53 139.69L612.53 69.19L547.03 30.69L456.03 121.19Z" fill="#DA202B" stroke="#DA202B"/><path d="M544.13 209.69L467.21 364.19L574.71 392.19L544.13 209.69Z" fill="#B6062D" stroke="#B6062D"/><path d="M648.03 162.69L544.53 208.19L575.03 390.19L615.03 338.69L657.03 238.69L648.03 162.69Z" fill="#900224" stroke="#900224"/><path d="M335.53 186.69L456.03 121.19L541.53 35.69L542.53 27.19L457.53 16.69L389.03 35.69L335.53 114.69V186.69Z" fill="#F8A4A4" stroke="#F8A4A4"/><path d="M335.03 187.69L335.53 114.69C333.37 107.86 328.93 94.09 328.53 93.69C328.13 93.29 309.03 71.19 299.53 60.19L277.53 39.19L245.53 24.19L213.03 13.69L154.53 16.19L126.03 34.19L214.53 121.19L335.03 187.69Z" fill="#EF4649" stroke="#EF4649"/><path d="M515.53 473.2C451.54 540.16 335.53 625.7 335.53 625.7C335.53 625.7 295.62 597.04 271.03 577.7C243.7 556.19 229.07 543.25 203.03 520.2C172.62 493.27 156.38 477.22 129.03 447.19C100.53 415.89 84 400.47 63.03 363.69C45.27 332.53 35.08 313.13 25.03 278.7C13.42 238.91 10.04 187.19 13.03 174.19C16.03 161.2 27.53 113.7 41.53 92.19C55.53 70.69 75.68 47.48 106.53 31.69C134.9 17.18 153.19 11.27 185.03 12.19C212.87 13 227.95 14.19 253.53 25.19C281.9 37.39 301.07 49.23 320.53 73.19C327.74 82.06 335.53 93.69 335.53 93.69C335.53 93.69 341.72 84.12 347.53 75.19C354.37 64.69 379.59 42.4 405.53 30.19C430.91 18.25 447.04 13.9 475.03 12.19C510.09 10.06 553.53 26.19 561.03 30.69C568.53 35.2 606.53 59.69 621.53 80.69C633.55 97.51 648.36 118.85 654.03 147.2C658.53 169.7 657.6 221.34 647.03 267.2C635.44 317.49 620.41 342.26 592.53 385.7C571.03 419.19 546.92 440.35 515.53 473.2Z" stroke="#010000" stroke-width="24"/></svg>